{
    "asset" : {
        "generator" : "Khronos glTF Blender I/O v1.4.40",
        "version" : "2.0"
    },
    "scene" : 0,
    "scenes" : [
        {
            "name" : "Scene",
            "nodes" : [
                8
            ]
        }
    ],
    "nodes" : [
        {
            "mesh" : 0,
            "name" : "Box046_Frame_0"
        },
        {
            "mesh" : 1,
            "name" : "Box046_Material #25_0"
        },
        {
            "mesh" : 2,
            "name" : "Box046_Material #26_0"
        },
        {
            "children" : [
                0,
                1,
                2
            ],
            "name" : "Node_5",
            "translation" : [
                0,
                0,
                -4.887580871582031e-06
            ]
        },
        {
            "children" : [
                3
            ],
            "name" : "Box046",
            "rotation" : [
                0,
                0.7071068286895752,
                0,
                0.7071068286895752
            ],
            "translation" : [
                4.887580871582031e-06,
                0,
                0
            ]
        },
        {
            "children" : [
                4
            ],
            "name" : "RootNode"
        },
        {
            "children" : [
                5
            ],
            "name" : "6578199fe39646888856dd3816050d08.fbx",
            "rotation" : [
                0.7071068286895752,
                0,
                0,
                0.7071068286895752
            ]
        },
        {
            "children" : [
                6
            ],
            "name" : "RootNode (model correction matrix)"
        },
        {
            "children" : [
                7
            ],
            "name" : "RootNode (gltf orientation matrix)",
            "rotation" : [
                -0.7071068286895752,
                0,
                0,
                0.7071068286895752
            ],
            "scale" : [
                0.019999999552965164,
                0.019999999552965164,
                0.019999999552965164
            ]
        }
    ],
    "materials" : [
        {
            "doubleSided" : true,
            "name" : "Frame",
            "pbrMetallicRoughness" : {
                "baseColorFactor" : [
                    0.9406651854515076,
                    0.8940805196762085,
                    0.8940805196762085,
                    1
                ],
                "metallicFactor" : 0.7395198345184326
            }
        },
        {
            "doubleSided" : true,
            "name" : "Material_25",
            "pbrMetallicRoughness" : {
                "baseColorFactor" : [
                    0.015876293182373047,
                    0.015876293182373047,
                    0.015876293182373047,
                    1
                ],
                "metallicFactor" : 0.04439786449074745,
                "roughnessFactor" : 0.3919588327407837
            }
        },
        {
            "alphaMode" : "BLEND",
            "doubleSided" : true,
            "name" : "Material_26",
            "pbrMetallicRoughness" : {
                "baseColorFactor" : [
                    0.5882350206375122,
                    0.6313729882240295,
                    0.8117650151252747,
                    0.05049542710185051
                ],
                "metallicFactor" : 0,
                "roughnessFactor" : 0.8929713368415833
            }
        }
    ],
    "meshes" : [
        {
            "name" : "Box046_Frame_0",
            "primitives" : [
                {
                    "attributes" : {
                        "POSITION" : 0,
                        "NORMAL" : 1,
                        "TEXCOORD_0" : 2
                    },
                    "indices" : 3,
                    "material" : 0
                }
            ]
        },
        {
            "name" : "Box046_Material #25_0",
            "primitives" : [
                {
                    "attributes" : {
                        "POSITION" : 4,
                        "NORMAL" : 5,
                        "TEXCOORD_0" : 6
                    },
                    "indices" : 7,
                    "material" : 1
                }
            ]
        },
        {
            "name" : "Box046_Material #26_0",
            "primitives" : [
                {
                    "attributes" : {
                        "POSITION" : 8,
                        "NORMAL" : 9,
                        "TEXCOORD_0" : 10
                    },
                    "indices" : 11,
                    "material" : 2
                }
            ]
        }
    ],
    "accessors" : [
        {
            "bufferView" : 0,
            "componentType" : 5126,
            "count" : 56,
            "max" : [
                22,
                32,
                1.1412880420684814
            ],
            "min" : [
                -22,
                -32,
                1.1242412328720093
            ],
            "type" : "VEC3"
        },
        {
            "bufferView" : 1,
            "componentType" : 5126,
            "count" : 56,
            "type" : "VEC3"
        },
        {
            "bufferView" : 2,
            "componentType" : 5126,
            "count" : 56,
            "type" : "VEC2"
        },
        {
            "bufferView" : 3,
            "componentType" : 5123,
            "count" : 72,
            "type" : "SCALAR"
        },
        {
            "bufferView" : 4,
            "componentType" : 5126,
            "count" : 1936,
            "max" : [
                25,
                35,
                1.8467257022857666
            ],
            "min" : [
                -25,
                -35,
                0
            ],
            "type" : "VEC3"
        },
        {
            "bufferView" : 5,
            "componentType" : 5126,
            "count" : 1936,
            "type" : "VEC3"
        },
        {
            "bufferView" : 6,
            "componentType" : 5126,
            "count" : 1936,
            "type" : "VEC2"
        },
        {
            "bufferView" : 7,
            "componentType" : 5123,
            "count" : 6222,
            "type" : "SCALAR"
        },
        {
            "bufferView" : 8,
            "componentType" : 5126,
            "count" : 28,
            "max" : [
                22.0156307220459,
                31.999961853027344,
                1.6757595539093018
            ],
            "min" : [
                -21.984373092651367,
                -32,
                1.412703037261963
            ],
            "type" : "VEC3"
        },
        {
            "bufferView" : 9,
            "componentType" : 5126,
            "count" : 28,
            "type" : "VEC3"
        },
        {
            "bufferView" : 10,
            "componentType" : 5126,
            "count" : 28,
            "type" : "VEC2"
        },
        {
            "bufferView" : 11,
            "componentType" : 5123,
            "count" : 30,
            "type" : "SCALAR"
        }
    ],
    "bufferViews" : [
        {
            "buffer" : 0,
            "byteLength" : 672,
            "byteOffset" : 0
        },
        {
            "buffer" : 0,
            "byteLength" : 672,
            "byteOffset" : 672
        },
        {
            "buffer" : 0,
            "byteLength" : 448,
            "byteOffset" : 1344
        },
        {
            "buffer" : 0,
            "byteLength" : 144,
            "byteOffset" : 1792
        },
        {
            "buffer" : 0,
            "byteLength" : 23232,
            "byteOffset" : 1936
        },
        {
            "buffer" : 0,
            "byteLength" : 23232,
            "byteOffset" : 25168
        },
        {
            "buffer" : 0,
            "byteLength" : 15488,
            "byteOffset" : 48400
        },
        {
            "buffer" : 0,
            "byteLength" : 12444,
            "byteOffset" : 63888
        },
        {
            "buffer" : 0,
            "byteLength" : 336,
            "byteOffset" : 76332
        },
        {
            "buffer" : 0,
            "byteLength" : 336,
            "byteOffset" : 76668
        },
        {
            "buffer" : 0,
            "byteLength" : 224,
            "byteOffset" : 77004
        },
        {
            "buffer" : 0,
            "byteLength" : 60,
            "byteOffset" : 77228
        }
    ],
    "buffers" : [
        {
            "byteLength" : 77288,
            "uri" : "data:application/octet-stream;base64,"
        }
    ]
}
